<svg xmlns="http://www.w3.org/2000/svg" width="44" height="44" viewBox="0 0 44 44">
  <defs>
    <style>
      .cls-1 {
        fill: #fff;
      }
    </style>
  </defs>
  <path id="联合_1" data-name="联合 1" class="cls-1" d="M-15710.562,44.469l-15.927-15.927-15.93,15.927a3.549,3.549,0,0,1-5.027,0,3.554,3.554,0,0,1,0-5.031l15.927-15.926-15.927-15.926a3.561,3.561,0,0,1,0-5.031,3.557,3.557,0,0,1,5.027,0l15.929,15.928,15.928-15.928a3.563,3.563,0,0,1,5.032,0,3.563,3.563,0,0,1,0,5.031l-15.93,15.927,15.93,15.929a3.558,3.558,0,0,1,0,5.028,3.549,3.549,0,0,1-2.516,1.043A3.55,3.55,0,0,1-15710.562,44.469Z" transform="translate(15748.489 -1.513)"/>
</svg>
