<svg xmlns="http://www.w3.org/2000/svg" width="80" height="80" viewBox="0 0 80 80">
  <defs>
    <style>
      .cls-1, .cls-4 {
        fill: none;
      }

      .cls-1 {
        stroke: #fff;
        stroke-width: 4px;
      }

      .cls-2 {
        fill: #fff;
      }

      .cls-3 {
        stroke: none;
      }
    </style>
  </defs>
  <g id="组_199" data-name="组 199" transform="translate(-218 -1338)">
    <g id="椭圆_7" data-name="椭圆 7" class="cls-1" transform="translate(218 1338)">
      <circle class="cls-3" cx="40" cy="40" r="40"/>
      <circle class="cls-4" cx="40" cy="40" r="38"/>
    </g>
    <path id="路径_45" data-name="路径 45" class="cls-2" d="M861.736,415.589a4.942,4.942,0,0,1-2.246-.53,4.994,4.994,0,0,1-2.786-4.413V390.523a5.03,5.03,0,0,1,8-3.972l13.749,9.885a5.5,5.5,0,0,1,2.247,3.972,5.03,5.03,0,0,1-2.067,4.237l-14.018,9.973a4.9,4.9,0,0,1-2.876.971Zm0,0" transform="translate(-610.704 977.411)"/>
  </g>
</svg>
