<svg xmlns="http://www.w3.org/2000/svg" xmlns:xlink="http://www.w3.org/1999/xlink" width="136" height="136" viewBox="0 0 136 136">
  <defs>
    <style>
      .cls-1 {
        fill: url(#linear-gradient);
      }

      .cls-2 {
        fill: #fff;
      }

      .cls-3 {
        filter: url(#椭圆_8);
      }
    </style>
    <linearGradient id="linear-gradient" x1="0.5" x2="0.5" y2="1" gradientUnits="objectBoundingBox">
      <stop offset="0" stop-color="#fdac2a"/>
      <stop offset="1" stop-color="#ff8e86"/>
    </linearGradient>
    <filter id="椭圆_8" x="0" y="0" width="136" height="136" filterUnits="userSpaceOnUse">
      <feOffset dy="8" input="SourceAlpha"/>
      <feGaussianBlur stdDeviation="6" result="blur"/>
      <feFlood flood-color="#999" flood-opacity="0.349"/>
      <feComposite operator="in" in2="blur"/>
      <feComposite in="SourceGraphic"/>
    </filter>
  </defs>
  <g id="组_114" data-name="组 114" transform="translate(-587 -1744)">
    <g class="cls-3" transform="matrix(1, 0, 0, 1, 587, 1744)">
      <circle id="椭圆_8-2" data-name="椭圆 8" class="cls-1" cx="50" cy="50" r="50" transform="translate(18 10)"/>
    </g>
    <g id="组_113" data-name="组 113" transform="translate(635 1784)">
      <path id="路径_46" data-name="路径 46" class="cls-2" d="M787.53,428.268l-3.639,3.639c-1.255,1.13-2.259,2.259-3.263,3.263l-3.514,3.514c-.251.251-.628.5-1,.879a4.173,4.173,0,0,1-1.255.753,7.185,7.185,0,0,1-1.883.753c-.879.251-1.631.627-2.635.878s-1.757.5-2.51.753a6.3,6.3,0,0,1-1.757.376c-.879.126-1.381,0-1.632-.376a2.156,2.156,0,0,1-.251-1.631c0-.377.251-1,.376-1.883.251-.753.5-1.632.753-2.51s.5-1.632.753-2.385a10.892,10.892,0,0,1,.627-1.506,5.094,5.094,0,0,1,.628-1.13,4.06,4.06,0,0,1,1-1.13l1.255-1.255,2.51-2.51,3.389-3.388,3.64-3.639,9.789-9.789,8.534,8.534Z" transform="translate(-764.137 -403.124)"/>
      <path id="路径_47" data-name="路径 47" class="cls-2" d="M1051.141,352.74a2.965,2.965,0,0,1-.753,1.129,7.537,7.537,0,0,0-1,1,4.256,4.256,0,0,1-.753.753l-.627.628-8.534-8.534,1.255-1.255a9.137,9.137,0,0,1,1.255-1.13,2.989,2.989,0,0,1,1.38-.753,2.611,2.611,0,0,1,1.381-.126,3.718,3.718,0,0,1,1.255.251l1.13.377a8.227,8.227,0,0,1,2.134,1.757,10.71,10.71,0,0,1,1.757,2.636,2.365,2.365,0,0,1,.251,1,3.467,3.467,0,0,1,.126,1.13,3.666,3.666,0,0,1-.251,1.13Z" transform="translate(-1011.393 -344.404)"/>
    </g>
  </g>
</svg>
