<svg xmlns="http://www.w3.org/2000/svg" width="33.963" height="35.937" viewBox="0 0 33.963 35.937">
  <defs>
    <style>
      .cls-1 {
        fill: #333;
      }
    </style>
  </defs>
  <g id="组_189" data-name="组 189" transform="translate(0.006 -0.016)">
    <path id="路径_60" data-name="路径 60" class="cls-1" d="M627.668,175.018l13.549,9.5a4.034,4.034,0,0,1,1.626,2.922v19.178a3.644,3.644,0,0,1-3.613,3.653H612.493a3.644,3.644,0,0,1-3.613-3.653V187.256a3.563,3.563,0,0,1,1.445-2.923l13.007-9.315a3.77,3.77,0,0,1,4.336,0Zm-2.348,2.557-13.007,9.315h-.181c0,.183-.181.183-.181.365v19.361a.482.482,0,0,0,.542.548h8.671v-3.653a4.757,4.757,0,0,1,4.336-4.749h.361a4.809,4.809,0,0,1,4.7,4.749v3.653h8.671a.482.482,0,0,0,.542-.548V187.439c0-.183,0-.365-.181-.365l-13.549-9.5c-.361-.183-.542-.183-.723,0Zm.542,24.475a1.628,1.628,0,0,0-1.626,1.644v3.653h3.252v-3.653a1.593,1.593,0,0,0-1.445-1.644Zm0,0" transform="translate(-608.886 -174.317)"/>
  </g>
</svg>
