<svg xmlns="http://www.w3.org/2000/svg" width="34" height="34" viewBox="0 0 34 34">
  <defs>
    <style>
      .cls-1 {
        fill: #f44;
      }
    </style>
  </defs>
  <path id="路径_44" data-name="路径 44" class="cls-1" d="M1041.2,867.172c1.2-5.019,7.725-1.218,5.006-1.218L1031.118,884.1c-.474,0,4.19-18.381,3.928-18.768a1.36,1.36,0,0,1-.125-1.3c1.507-3.507-1.381-.713-3.089-3.17-.594-.856.644-6.009.644-5.945,0,3.962,1.041,16.983-1,17.545-2.918.8-.013-7.644.357-3.285.389,4.579-2.665-15.04,1.5-15.04C1033.332,854.137,1039.994,872.235,1041.2,867.172Zm-2.967-3.987h7.973c5.219,0,6.9,5.317,5.352,11.817-1.471,6.172-5.246,11.187-9.573,11.187h-13.76c-11.84,0-13.551-19.172-3.719-22.144.021-.019.048-.042.076-.069.178-.159.41-.4.669-.682a24.082,24.082,0,0,0,1.906-2.431c1.55-2.253,2.493-4.408,2.493-5.945,0-3.47,5.293-3.517,7.2-.779a9.81,9.81,0,0,1,1.386,9.048Zm0,0" transform="translate(-1018.11 -852.188)"/>
</svg>
