<svg xmlns="http://www.w3.org/2000/svg" width="40" height="34" viewBox="0 0 40 34">
  <defs>
    <style>
      .cls-1 {
        fill: #333;
      }

      .cls-2, .cls-4 {
        fill: none;
      }

      .cls-2 {
        stroke: #333;
        stroke-width: 3px;
      }

      .cls-3 {
        stroke: none;
      }
    </style>
  </defs>
  <g id="组_106" data-name="组 106" transform="translate(-605 -276)">
    <path id="路径_43" data-name="路径 43" class="cls-1" d="M641,292.982a20.152,20.152,0,0,0-.926-3.17,24.714,24.714,0,0,0-2.743-5.543,18.979,18.979,0,0,0-6.124-5.712,21.648,21.648,0,0,0-20.423.005,19.1,19.1,0,0,0-6.124,5.707,24.827,24.827,0,0,0-2.738,5.549,19.937,19.937,0,0,0-.922,3.17v.02a20.351,20.351,0,0,0,.926,3.175,24.951,24.951,0,0,0,2.739,5.538,18.978,18.978,0,0,0,6.124,5.712,21.581,21.581,0,0,0,20.419,0,19.087,19.087,0,0,0,6.124-5.707,24.718,24.718,0,0,0,2.743-5.543,20.146,20.146,0,0,0,.926-3.17Zm-3.288.01a23.828,23.828,0,0,1-2.854,6.421l-.022.026a15.773,15.773,0,0,1-5.065,4.727,18.819,18.819,0,0,1-17.583,0,15.7,15.7,0,0,1-5.065-4.732,23.839,23.839,0,0,1-2.867-6.447,24.047,24.047,0,0,1,2.867-6.447,15.783,15.783,0,0,1,5.069-4.726,18.869,18.869,0,0,1,17.588,0,15.7,15.7,0,0,1,5.065,4.732,24.039,24.039,0,0,1,2.867,6.447Z" transform="translate(4)"/>
    <g id="椭圆_6" data-name="椭圆 6" class="cls-2" transform="translate(618 286)">
      <circle class="cls-3" cx="7" cy="7" r="7"/>
      <circle class="cls-4" cx="7" cy="7" r="5.5"/>
    </g>
  </g>
</svg>
