<svg xmlns="http://www.w3.org/2000/svg" width="36" height="36" viewBox="0 0 36 36">
  <defs>
    <style>
      .cls-1 {
        fill: #333;
      }
    </style>
  </defs>
  <g id="组_192" data-name="组 192" transform="translate(-580 -160.959)">
    <g id="组_190" data-name="组 190" transform="translate(580 160.959)">
      <path id="路径_64" data-name="路径 64" class="cls-1" d="M617.319,205.15H606.6a17.579,17.579,0,1,1,11.912-4.637v3.448a1.192,1.192,0,0,1-1.189,1.189ZM606.6,172.337a15.217,15.217,0,1,0,0,30.435h9.535v-2.806a1.189,1.189,0,0,1,.4-.9,15.207,15.207,0,0,0-9.939-26.726Zm0,0" transform="translate(-588.595 -169.554)"/>
      <path id="路径_65" data-name="路径 65" class="cls-1" d="M608.71,196.959H598a17.984,17.984,0,1,1,12.324-4.872v3.258A1.616,1.616,0,0,1,608.71,196.959ZM598,161.813a17.146,17.146,0,0,0,0,34.292h10.71a.761.761,0,0,0,.76-.76v-3.63l.137-.127A17.153,17.153,0,0,0,598,161.813Zm9.95,32.771H598a15.625,15.625,0,0,1,0-31.25h0a15.615,15.615,0,0,1,10.205,27.442.758.758,0,0,0-.256.575ZM598,164.188a14.771,14.771,0,1,0,0,29.543h9.1v-2.375a1.611,1.611,0,0,1,.549-1.223A14.761,14.761,0,0,0,598,164.188Z" transform="translate(-580 -160.959)"/>
    </g>
    <g id="组_191" data-name="组 191" transform="translate(589.153 176.843)">
      <path id="路径_66" data-name="路径 66" class="cls-1" d="M771.727,504.084a1.711,1.711,0,1,0,1.711-1.711,1.711,1.711,0,0,0-1.711,1.711Zm6.731,0a1.711,1.711,0,1,0,1.711-1.711,1.711,1.711,0,0,0-1.711,1.711Zm6.731,0a1.711,1.711,0,1,0,1.711-1.711,1.711,1.711,0,0,0-1.711,1.711Zm0,0" transform="translate(-771.322 -501.968)"/>
      <path id="路径_67" data-name="路径 67" class="cls-1" d="M778.305,497.6a2.116,2.116,0,1,1,2.116-2.116A2.118,2.118,0,0,1,778.305,497.6Zm0-3.422a1.306,1.306,0,1,0,1.306,1.306A1.308,1.308,0,0,0,778.305,494.182Zm-6.731,3.422a2.116,2.116,0,1,1,2.116-2.116A2.118,2.118,0,0,1,771.574,497.6Zm0-3.422a1.306,1.306,0,1,0,1.306,1.306A1.308,1.308,0,0,0,771.574,494.182Zm-6.731,3.421a2.114,2.114,0,1,1,1.058-.283A2.115,2.115,0,0,1,764.843,497.6Zm0-3.421a1.306,1.306,0,1,0,1.306,1.306A1.308,1.308,0,0,0,764.843,494.182Z" transform="translate(-762.727 -493.373)"/>
    </g>
  </g>
</svg>
