<svg xmlns="http://www.w3.org/2000/svg" width="40" height="40" viewBox="0 0 40 40">
  <defs>
    <style>
      .cls-1 {
        fill: #333;
      }
    </style>
  </defs>
  <g id="组_81" data-name="组 81" transform="translate(-618 -198)">
    <path id="路径_25" data-name="路径 25" class="cls-1" d="M652.56,231.82l.359-.359A20.587,20.587,0,0,0,658,218a20,20,0,1,0-19.988,20h14.739a1.951,1.951,0,0,0,1.462-1.1,1.893,1.893,0,0,0-.192-1.988Zm-2.9,2.539h-12.2A16.421,16.421,0,0,1,621.643,218v-.144a16.279,16.279,0,0,1,16.369-16.216h.551a16.334,16.334,0,0,1,11.264,27.641l-1.821,1.82Zm0,0" transform="translate(0 0)"/>
    <path id="路径_26" data-name="路径 26" class="cls-1" d="M837.441,446.629a1.84,1.84,0,0,0-1.945,1.945v3.89a1.945,1.945,0,0,0,3.89,0v-3.89a1.84,1.84,0,0,0-1.945-1.945Zm11.67,0a1.827,1.827,0,0,0-1.945,1.945v3.89a1.945,1.945,0,0,0,3.89,0v-3.89a1.854,1.854,0,0,0-1.945-1.945Zm0,0" transform="translate(-205.265 -234.312)"/>
  </g>
</svg>
