<svg xmlns="http://www.w3.org/2000/svg" width="34" height="34" viewBox="0 0 34 34">
  <defs>
    <style>
      .cls-1 {
        fill: #333;
      }
    </style>
  </defs>
  <path id="路径_25" data-name="路径 25" class="cls-1" d="M622.624,226.747l-.306-.305A17.5,17.5,0,0,1,618,215a17,17,0,1,1,16.99,17H622.461a1.658,1.658,0,0,1-1.243-.936,1.609,1.609,0,0,1,.163-1.69Zm2.465,2.158h10.369A13.958,13.958,0,0,0,648.9,215v-.122a13.837,13.837,0,0,0-13.914-13.783h-.469a13.884,13.884,0,0,0-9.575,23.495l1.548,1.547Zm0,0" transform="translate(-618 -198)"/>
</svg>
