<svg id="组_198" data-name="组 198" xmlns="http://www.w3.org/2000/svg" xmlns:xlink="http://www.w3.org/1999/xlink" width="750" height="414" viewBox="0 0 750 414">
  <defs>
    <style>
      .cls-1 {
        fill: url(#linear-gradient);
      }

      .cls-2 {
        fill: none;
        opacity: 0.5;
      }

      .cls-3, .cls-4 {
        stroke: none;
      }

      .cls-4 {
        fill: #fff;
      }
    </style>
    <linearGradient id="linear-gradient" x2="1" y2="1" gradientUnits="objectBoundingBox">
      <stop offset="0" stop-color="#fdae25"/>
      <stop offset="1" stop-color="#ff8e8a"/>
    </linearGradient>
  </defs>
  <rect id="矩形_22" data-name="矩形 22" class="cls-1" width="750" height="414"/>
  <g id="组_73" data-name="组 73" transform="translate(-9 32)">
    <g id="交叉_6" data-name="交叉 6" class="cls-2" transform="translate(3280)">
      <path class="cls-3" d="M-3138.646,382A283.97,283.97,0,0,1-3148,309.5C-3148,152.927-3021.072,26-2864.5,26H-2521V382Z"/>
      <path class="cls-4" d="M -2522 380.9996032714844 L -2522 27.00007820129395 L -2864.500244140625 27.00007820129395 C -2883.66796875 27.00007820129395 -2902.82373046875 28.93107795715332 -2921.4345703125 32.73946380615234 C -2939.572265625 36.45100021362305 -2957.4130859375 41.98907852172852 -2974.46142578125 49.19984817504883 C -2991.200439453125 56.27992248535156 -3007.34521484375 65.04307556152344 -3022.447509765625 75.24600219726563 C -3037.40673828125 85.35215759277344 -3051.4736328125 96.95838928222656 -3064.257568359375 109.7423095703125 C -3077.04150390625 122.5263061523438 -3088.64794921875 136.5931549072266 -3098.754150390625 151.5522308349609 C -3108.95703125 166.654541015625 -3117.72021484375 182.7994689941406 -3124.80029296875 199.5385437011719 C -3132.01123046875 216.5869293212891 -3137.54931640625 234.4276885986328 -3141.2607421875 252.5653839111328 C -3145.0693359375 271.1766052246094 -3147.000244140625 290.3322448730469 -3147.000244140625 309.5001525878906 C -3147.000244140625 333.7266235351563 -3143.93017578125 357.7765808105469 -3137.8740234375 380.9996032714844 L -2522 380.9996032714844 M -2521 381.9996032714844 L -3138.6455078125 381.9996032714844 C -3144.748291015625 358.8598327636719 -3148.000244140625 334.5571594238281 -3148.000244140625 309.5001525878906 C -3148.000244140625 152.9270782470703 -3021.072265625 26.00007820129395 -2864.500244140625 26.00007820129395 L -2521 26.00007820129395 L -2521 381.9996032714844 Z"/>
    </g>
    <g id="交叉_5" data-name="交叉 5" class="cls-2" transform="translate(3280)">
      <path class="cls-3" d="M-3102.779,382A260.648,260.648,0,0,1-3113,309.5C-3113,165.63-2996.37,49-2852.5,49H-2521V382Z"/>
      <path class="cls-4" d="M -2522 380.9996032714844 L -2522 49.99960327148438 L -2852.499755859375 49.99960327148438 C -2870.107177734375 49.99960327148438 -2887.703125 51.77337265014648 -2904.799072265625 55.27175521850586 C -2921.460205078125 58.68106460571289 -2937.848388671875 63.76829528808594 -2953.5087890625 70.39206695556641 C -2968.885009765625 76.89560699462891 -2983.715576171875 84.94537353515625 -2997.588134765625 94.31760406494141 C -3011.329345703125 103.6009902954102 -3024.2509765625 114.2623748779297 -3035.994140625 126.0055236816406 C -3047.737548828125 137.7487640380859 -3058.398681640625 150.6703796386719 -3067.68212890625 164.4116058349609 C -3077.054443359375 178.2843780517578 -3085.104248046875 193.1149139404297 -3091.607666015625 208.4911346435547 C -3098.2314453125 224.1514434814453 -3103.31884765625 240.5397644042969 -3106.72802734375 257.20068359375 C -3110.2265625 274.2966003417969 -3112.000244140625 291.8926696777344 -3112.000244140625 309.5001525878906 C -3112.000244140625 333.8029174804688 -3108.644287109375 357.85498046875 -3102.025634765625 380.9996032714844 L -2522 380.9996032714844 M -2521 381.9996032714844 L -3102.778564453125 381.9996032714844 C -3109.43310546875 358.9855346679688 -3113.000244140625 334.6581420898438 -3113.000244140625 309.5001525878906 C -3113.000244140625 165.6296844482422 -2996.3701171875 48.99960327148438 -2852.499755859375 48.99960327148438 L -2521 48.99960327148438 L -2521 381.9996032714844 Z"/>
    </g>
    <g id="交叉_4" data-name="交叉 4" class="cls-2" transform="translate(3280)">
      <path class="cls-3" d="M-3062.578,382A234.316,234.316,0,0,1-3074,309.5C-3074,179.989-2969.011,75-2839.5,75H-2521V382Z"/>
      <path class="cls-4" d="M -2522 380.9995727539063 L -2522 75.99971771240234 L -2839.5 75.99971771240234 C -2855.34326171875 75.99971771240234 -2871.176513671875 77.59579467773438 -2886.5595703125 80.74365234375 C -2901.551025390625 83.81136322021484 -2916.29736328125 88.38886260986328 -2930.388427734375 94.34893798828125 C -2944.22412109375 100.2009353637695 -2957.568603515625 107.4441528320313 -2970.05126953125 115.8773651123047 C -2982.415771484375 124.2306518554688 -2994.042724609375 133.8237915039063 -3004.609375 144.3904418945313 C -3015.17578125 154.9570770263672 -3024.768798828125 166.5840759277344 -3033.1220703125 178.9485778808594 C -3041.555419921875 191.4313659667969 -3048.798583984375 204.7759399414063 -3054.650390625 218.611572265625 C -3060.6103515625 232.7027893066406 -3065.18798828125 247.4490051269531 -3068.255615234375 262.4406433105469 C -3071.4033203125 277.82373046875 -3072.99951171875 293.6567993164063 -3072.99951171875 309.5001525878906 C -3072.99951171875 333.9219055175781 -3069.248779296875 357.9722900390625 -3061.849853515625 380.9995727539063 L -2522 380.9995727539063 M -2521 381.9995727539063 L -3062.57763671875 381.9995727539063 C -3069.992431640625 359.1687927246094 -3073.99951171875 334.8030700683594 -3073.99951171875 309.5001525878906 C -3073.99951171875 179.9892272949219 -2969.010986328125 74.99971771240234 -2839.5 74.99971771240234 L -2521 74.99971771240234 L -2521 381.9995727539063 Z"/>
    </g>
    <g id="交叉_3" data-name="交叉 3" class="cls-2" transform="translate(3280)">
      <path class="cls-3" d="M-3029.375,382A213.066,213.066,0,0,1-3042,309.5c0-117.913,95.587-213.5,213.5-213.5H-2521V382Z"/>
      <path class="cls-4" d="M -2522 380.9996337890625 L -2522 97.00028991699219 L -2828.500244140625 97.00028991699219 C -2842.918701171875 97.00028991699219 -2857.327880859375 98.45281982421875 -2871.327392578125 101.3175506591797 C -2884.970703125 104.1093521118164 -2898.390625 108.2751541137695 -2911.21435546875 113.6991577148438 C -2923.8056640625 119.0248184204102 -2935.949951171875 125.6166229248047 -2947.310302734375 133.2913513183594 C -2958.5625 140.8933563232422 -2969.14404296875 149.6237487792969 -2978.76025390625 159.2400817871094 C -2988.37646484375 168.8563537597656 -2997.10693359375 179.4377593994141 -3004.708984375 190.6901550292969 C -3012.3837890625 202.05029296875 -3018.9755859375 214.1946868896484 -3024.301025390625 226.7859497070313 C -3029.72509765625 239.6098175048828 -3033.890869140625 253.0297546386719 -3036.6826171875 266.6729431152344 C -3039.54736328125 280.6724853515625 -3041 295.0816955566406 -3041 309.5001525878906 C -3041 334.0514831542969 -3036.852783203125 358.1028442382813 -3028.671875 380.9996337890625 L -2522 380.9996337890625 M -2521 381.9996337890625 L -3029.375244140625 381.9996337890625 C -3037.5478515625 359.362548828125 -3042 334.9552307128906 -3042 309.5001525878906 C -3042 191.5874938964844 -2946.412841796875 96.00028991699219 -2828.500244140625 96.00028991699219 L -2521 96.00028991699219 L -2521 381.9996337890625 Z"/>
    </g>
    <g id="交叉_2" data-name="交叉 2" class="cls-2" transform="translate(3280)">
      <path class="cls-3" d="M-2994.8,382a190.923,190.923,0,0,1-14.2-72.5c0-105.763,85.738-191.5,191.5-191.5H-2521V382Z"/>
      <path class="cls-4" d="M -2522 380.9996337890625 L -2522 118.9999465942383 L -2817.49951171875 118.9999465942383 C -2830.42529296875 118.9999465942383 -2843.3427734375 120.302131652832 -2855.89306640625 122.8702545166016 C -2868.123779296875 125.3730087280273 -2880.154296875 129.1075134277344 -2891.650390625 133.9700012207031 C -2902.938232421875 138.7442626953125 -2913.8251953125 144.653564453125 -2924.00927734375 151.5338134765625 C -2934.096923828125 158.3488159179688 -2943.582763671875 166.1753845214844 -2952.20361328125 174.7961273193359 C -2960.82421875 183.4169464111328 -2968.65087890625 192.9028167724609 -2975.4658203125 202.9903869628906 C -2982.345947265625 213.1743774414063 -2988.25537109375 224.0614471435547 -2993.02978515625 235.3491973876953 C -2997.89208984375 246.8453826904297 -3001.626708984375 258.8758850097656 -3004.12939453125 271.1066284179688 C -3006.697509765625 283.6568298339844 -3007.999755859375 296.5742492675781 -3007.999755859375 309.5001220703125 C -3007.999755859375 322.0478820800781 -3006.7724609375 334.5943908691406 -3004.35205078125 346.7911376953125 C -3002.035400390625 358.4652709960938 -2998.596435546875 369.970458984375 -2994.127685546875 380.9996337890625 L -2522 380.9996337890625 M -2521 381.9996337890625 L -2994.800048828125 381.9996337890625 C -3003.954833984375 359.6358947753906 -3008.999755859375 335.1596984863281 -3008.999755859375 309.5001220703125 C -3008.999755859375 203.7375030517578 -2923.26220703125 117.9999465942383 -2817.49951171875 117.9999465942383 L -2521 117.9999465942383 L -2521 381.9996337890625 Z"/>
    </g>
    <g id="交叉_1" data-name="交叉 1" class="cls-2" transform="translate(3280)">
      <path class="cls-3" d="M-2954.187,382a169.7,169.7,0,0,1-16.154-72.5,170.349,170.349,0,0,1,170.348-170.348H-2521V382Z"/>
      <path class="cls-4" d="M -2522 380.9996032714844 L -2522 140.1517028808594 L -2799.99267578125 140.1517028808594 C -2811.4833984375 140.1517028808594 -2822.966552734375 141.3092651367188 -2834.123291015625 143.5922698974609 C -2844.99609375 145.8171539306641 -2855.690673828125 149.1369934082031 -2865.910400390625 153.4595489501953 C -2875.94482421875 157.7037658691406 -2885.623046875 162.9569244384766 -2894.67626953125 169.0732116699219 C -2903.643798828125 175.1315460205078 -2912.076416015625 182.0891571044922 -2919.739990234375 189.7527618408203 C -2927.40380859375 197.4163818359375 -2934.361328125 205.8490905761719 -2940.419677734375 214.8166046142578 C -2946.535888671875 223.869873046875 -2951.7890625 233.548095703125 -2956.033203125 243.5824279785156 C -2960.355712890625 253.8021545410156 -2963.675537109375 264.496826171875 -2965.900634765625 275.3694763183594 C -2968.18359375 286.5262145996094 -2969.341064453125 298.0093688964844 -2969.341064453125 309.5000915527344 C -2969.341064453125 322.1546936035156 -2967.939208984375 334.7723693847656 -2965.174072265625 347.0026550292969 C -2962.531005859375 358.6939086914063 -2958.621337890625 370.1289672851563 -2953.5517578125 380.9996032714844 L -2522 380.9996032714844 M -2521 381.9996032714844 L -2954.1875 381.9996032714844 C -2964.548095703125 360.0023193359375 -2970.341064453125 335.42626953125 -2970.341064453125 309.5000915527344 C -2970.341064453125 215.4194793701172 -2894.073486328125 139.1517028808594 -2799.99267578125 139.1517028808594 L -2521 139.1517028808594 L -2521 381.9996032714844 Z"/>
    </g>
  </g>
</svg>
