<svg xmlns="http://www.w3.org/2000/svg" width="34" height="34" viewBox="0 0 34 34">
  <path id="路径_44" data-name="路径 44" d="M1041.985,883.419c2.612,0,5.613-3.984,6.819-9.048,1.2-5.019.122-8.418-2.6-8.418h-9.982a1.421,1.421,0,0,1-1.177-.619,1.36,1.36,0,0,1-.125-1.3c1.507-3.507,1.294-5.879-.414-8.336a2.361,2.361,0,0,0-2.031-.779c0,3.962-4.959,11.173-7,11.735-2.918.8-4.818,4.741-4.447,9.1.389,4.579,3.03,7.669,7.2,7.669Zm-3.752-20.235h7.973c5.219,0,6.9,5.317,5.352,11.817-1.471,6.172-5.246,11.187-9.573,11.187h-13.76c-11.84,0-13.551-19.172-3.719-22.144.021-.019.048-.042.076-.069.178-.159.41-.4.669-.682a24.082,24.082,0,0,0,1.906-2.431c1.55-2.253,2.493-4.408,2.493-5.945,0-3.47,5.293-3.517,7.2-.779a9.81,9.81,0,0,1,1.386,9.048Zm0,0" transform="translate(-1018.11 -852.188)"/>
</svg>
