<svg xmlns="http://www.w3.org/2000/svg" width="37.008" height="38.681" viewBox="0 0 37.008 38.681">
  <defs>
    <style>
      .cls-1 {
        fill: #ef729a;
      }

      .cls-2 {
        fill: #fed3e0;
      }
    </style>
  </defs>
  <g id="组_105" data-name="组 105" transform="translate(-618 -183)">
    <path id="路径_41" data-name="路径 41" class="cls-1" d="M654.083,401.268l-2.544-1.851a2.07,2.07,0,0,0-1.236-.39,1.846,1.846,0,0,0-1.771,1.084L636.5,418.526l-12.49-17.952a2.015,2.015,0,0,0-1.769-1.107,1.727,1.727,0,0,0-.776.182l-2.082.925a1.759,1.759,0,0,0-1.388,1.85v17.512c0,3.932,1.407,6.081,5.339,6.081h25.7c3.932,0,5.973-2.149,5.973-6.081V403.118a2.855,2.855,0,0,0-.925-1.85Zm-1.892,18.668c0,2.41-.826,3.264-3.156,3.264h-25.7c-1.572,0-2.522,0-2.522-3.264V403.021l1.12-.5,12.255,17.613a2.817,2.817,0,0,0,4.671-.068l11.683-17.888,1.645,1.2Zm0,0" transform="translate(0 -204.336)"/>
    <path id="路径_42" data-name="路径 42" class="cls-1" d="M753.786,196.749c2.51,0,6.361-2.532,8.18-3.837,1.821,1.3,5.67,3.806,8.174,3.806a2.779,2.779,0,0,0,2.911-3.017v-8.244l-.083-.479a3.112,3.112,0,0,0-2.993-1.931,6.631,6.631,0,0,0-3.458,1.2c-2.5,1.5-3.83,2.3-4.533,2.719-.691-.419-2.015-1.22-4.543-2.742A6.652,6.652,0,0,0,753.951,183a3.114,3.114,0,0,0-2.993,1.937l-.083,8.809a2.777,2.777,0,0,0,2.911,3Zm9.585-7.332c.663-.4,1.987-1.194,4.617-2.768,1.532-.959,2.039-.813,2.245-.753v7.779c0,.107-.011.182-.008.22a.706.706,0,0,1-.085,0c-1.414,0-4.617-1.9-6.768-3.447Zm-9.679-3.556c.217-.1.71-.223,2.267.761,2.617,1.575,3.935,2.372,4.595,2.772v1.062c-2.149,1.562-5.354,3.476-6.768,3.476l-.049.085a.789.789,0,0,1-.044-.3v-7.86Zm6.184,17.4a2.311,2.311,0,1,0,1.156-2,2.311,2.311,0,0,0-1.156,2Zm0,0" transform="translate(-125.684)"/>
    <circle id="椭圆_5" data-name="椭圆 5" class="cls-2" cx="3.5" cy="3.5" r="3.5" transform="translate(633 198.992)"/>
  </g>
</svg>
