<svg xmlns="http://www.w3.org/2000/svg" width="40.049" height="39.941" viewBox="0 0 40.049 39.941">
  <defs>
    <style>
      .cls-1 {
        fill: #6cb5ef;
      }

      .cls-2 {
        fill: #65b5f7;
      }

      .cls-3 {
        fill: #cce6fa;
      }
    </style>
  </defs>
  <g id="组_95" data-name="组 95" transform="translate(-579.994 -161.008)">
    <g id="组_94" data-name="组 94" transform="translate(580 161)">
      <g id="组_96" data-name="组 96" transform="translate(0 0)">
        <path id="路径_34" data-name="路径 34" class="cls-1" d="M599.85,201.1a20,20,0,0,1-17.7-29.254,1.594,1.594,0,0,1,2.807,1.511,17.51,17.51,0,0,0-1.835,7.772A16.732,16.732,0,1,0,599.85,164.4a15.641,15.641,0,0,0-7.34,1.727,1.617,1.617,0,1,1-1.4-2.915,19.38,19.38,0,0,1,8.852-2.051,19.971,19.971,0,1,1-.108,39.941Zm0,0" transform="translate(-579.886 -161.152)"/>
      </g>
    </g>
    <path id="路径_35" data-name="路径 35" class="cls-2" d="M774.455,365.99a10.255,10.255,0,0,1,0-20.51,1.619,1.619,0,1,1,0,3.239,7.017,7.017,0,1,0,7.017,7.017,1.619,1.619,0,0,1,3.238,0,10.321,10.321,0,0,1-10.255,10.255Zm0,0" transform="translate(-174.491 -174.756)"/>
    <path id="路径_36" data-name="路径 36" class="cls-3" d="M1020.2,358.957a3.238,3.238,0,1,0,3.239-3.238,3.238,3.238,0,0,0-3.239,3.238Zm0,0" transform="translate(-416.997 -184.456)"/>
  </g>
</svg>
