<svg xmlns="http://www.w3.org/2000/svg" width="39.437" height="39.422" viewBox="0 0 39.437 39.422">
  <defs>
    <style>
      .cls-1 {
        fill: #70ceac;
      }

      .cls-2 {
        fill: #d6e6df;
      }
    </style>
  </defs>
  <g id="组_100" data-name="组 100" transform="translate(-602.993 -183.994)">
    <g id="组_99" data-name="组 99" transform="translate(603 184)">
      <g id="组_101" data-name="组 101" transform="translate(0 0)">
        <path id="路径_37" data-name="路径 37" class="cls-1" d="M638.83,220.131h-5.457A19.754,19.754,0,1,0,622.6,223.32H638.83a1.6,1.6,0,1,0,0-3.189Zm-32.745-16.514A16.514,16.514,0,1,1,622.6,220.131a16.508,16.508,0,0,1-16.514-16.514Zm0,0" transform="translate(-602.887 -183.904)"/>
      </g>
    </g>
    <path id="路径_38" data-name="路径 38" class="cls-2" d="M869.695,430.513a2.223,2.223,0,0,1-2.233-2.233v-9.568a2.223,2.223,0,0,1,2.233-2.233,2.558,2.558,0,0,1,1.134.284l8.293,4.784a2.213,2.213,0,0,1,.815,3.048,2.247,2.247,0,0,1-.815.815l-8.293,4.784a2.2,2.2,0,0,1-1.134.319Zm.957-10.171v6.272l5.422-3.119Zm0,0" transform="translate(-249.818 -219.606)"/>
  </g>
</svg>
