<svg xmlns="http://www.w3.org/2000/svg" width="35.854" height="39.761" viewBox="0 0 35.854 39.761">
  <defs>
    <style>
      .cls-1 {
        fill: #d9ccf9;
      }

      .cls-2 {
        fill: #a794ea;
      }
    </style>
  </defs>
  <g id="组_103" data-name="组 103" transform="translate(-630 -175)">
    <path id="路径_39" data-name="路径 39" class="cls-1" d="M748.992,424.227v-5.769a1.1,1.1,0,0,0-.78-1.076,13.923,13.923,0,0,0-2.794-.239,23.871,23.871,0,0,0-4,.361c-1.559.282-2.784.622-4.009.957a25.8,25.8,0,0,1-8.407,1.3,1.067,1.067,0,0,0-1.06,1.074v3.392c0,6.218,4.733,11.258,10.524,11.258s10.524-5.035,10.524-11.258Zm-10.524,8.388c-4.219,0-7.654-3.762-7.654-8.388v-1.643a28.482,28.482,0,0,0,7.388-1.375c1.181-.328,2.3-.636,3.712-.892a21.175,21.175,0,0,1,3.5-.3c.258,0,.493,0,.7.017v4.2c0,4.635-3.432,8.388-7.654,8.388Zm0,0" transform="translate(-90.866 -227.434)"/>
    <path id="路径_40" data-name="路径 40" class="cls-2" d="M647.929,175A17.915,17.915,0,0,0,630,192.862v10.23c0,9.923,3.6,11.669,11.173,11.669a1.709,1.709,0,0,0,0-3.418c-5.883-.011-7.743-.374-7.743-8.25v-10.23a14.5,14.5,0,1,1,29,0v10.23c0,7.877-1.863,8.25-7.746,8.25a1.709,1.709,0,0,0,0,3.418c7.57,0,11.172-1.745,11.172-11.669v-10.23A17.915,17.915,0,0,0,647.929,175Zm0,0" transform="translate(0 0)"/>
  </g>
</svg>
