<svg xmlns="http://www.w3.org/2000/svg" width="37.72" height="42.849" viewBox="0 0 37.72 42.849">
  <defs>
    <style>
      .cls-1 {
        fill: #ef729a;
      }

      .cls-2 {
        fill: #fed3e0;
      }
    </style>
  </defs>
  <g id="组_90" data-name="组 90" transform="translate(-600 -132.02)">
    <g id="组_89" data-name="组 89" transform="translate(600 132)">
      <g id="组_91" data-name="组 91" transform="translate(0 0)">
        <path id="路径_31" data-name="路径 31" class="cls-1" d="M619.174,154.129a10.87,10.87,0,1,0-10.87-10.87,10.882,10.882,0,0,0,10.87,10.87Zm0-17.838a6.968,6.968,0,1,1-6.968,6.968,6.976,6.976,0,0,1,6.968-6.968Zm-3.891,35.122h-5.7a5.833,5.833,0,0,1,0-11.661H628.94a2.031,2.031,0,0,0,0-4.058H609.578a9.774,9.774,0,0,0,0,19.544h5.7a1.913,1.913,0,1,0,0-3.825Zm20.486,0h0Z" transform="translate(-600 -132.369)"/>
      </g>
    </g>
    <path id="路径_32" data-name="路径 32" class="cls-2" d="M984.2,728.625a1.9,1.9,0,0,0,1.951,1.889h10.731a1.89,1.89,0,1,0,0-3.778H986.146a1.9,1.9,0,0,0-1.951,1.889Zm0,0" transform="translate(-364.035 -563.527)"/>
    <path id="路径_33" data-name="路径 33" class="cls-2" d="M984.2,728.625a2.129,2.129,0,0,0,2.341,1.889h12.877a1.933,1.933,0,1,0,0-3.778H986.536a2.129,2.129,0,0,0-2.341,1.889Zm0,0" transform="translate(-364.035 -555.645)"/>
  </g>
</svg>
