<svg xmlns="http://www.w3.org/2000/svg" width="38" height="40" viewBox="0 0 38 40">
  <defs>
    <style>
      .cls-1 {
        fill: #a593e7;
      }

      .cls-2 {
        fill: #d9ccf9;
      }
    </style>
  </defs>
  <g id="组_86" data-name="组 86" transform="translate(-694 -262.609)">
    <g id="组_84" data-name="组 84" transform="translate(694 262.609)">
      <path id="路径_27" data-name="路径 27" class="cls-1" d="M723.031,275.357a1.208,1.208,0,0,0-1.581,0l-14.592,12.62a1.231,1.231,0,0,0-.426.932v18.5a1.232,1.232,0,0,0,.356.867,1.21,1.21,0,0,0,.86.359h29.185a1.211,1.211,0,0,0,.86-.359,1.232,1.232,0,0,0,.356-.867v-18.5a1.231,1.231,0,0,0-.425-.932Zm1.583-1.862,14.592,12.619a3.694,3.694,0,0,1,1.274,2.795v18.5a3.664,3.664,0,0,1-3.648,3.68H707.648A3.664,3.664,0,0,1,704,307.41v-18.5a3.693,3.693,0,0,1,1.274-2.8L719.867,273.5a3.624,3.624,0,0,1,4.747,0Zm0,0" transform="translate(-703.24 -271.85)"/>
      <path id="路径_28" data-name="路径 28" class="cls-1" d="M727.629,302.609H698.371A4.395,4.395,0,0,1,694,298.2V279.662a4.419,4.419,0,0,1,1.527-3.35l14.629-12.643a4.344,4.344,0,0,1,5.689,0h0l14.629,12.645A4.419,4.419,0,0,1,732,279.662V298.2A4.395,4.395,0,0,1,727.629,302.609ZM713,264.045a2.921,2.921,0,0,0-1.915.719l-14.629,12.643a2.974,2.974,0,0,0-1.028,2.256V298.2a2.959,2.959,0,0,0,2.943,2.968h29.257a2.959,2.959,0,0,0,2.943-2.968V279.662a2.974,2.974,0,0,0-1.028-2.254l-14.629-12.645h0A2.921,2.921,0,0,0,713,264.045Zm14.629,36.106H698.371a1.912,1.912,0,0,1-1.367-.571,1.97,1.97,0,0,1-.566-1.378V279.662a1.955,1.955,0,0,1,.676-1.481l14.628-12.645a1.913,1.913,0,0,1,2.514,0h0l14.629,12.645a1.954,1.954,0,0,1,.676,1.481V298.2A1.97,1.97,0,0,1,729,299.58,1.912,1.912,0,0,1,727.629,300.15ZM713,266.507a.5.5,0,0,0-.328.123l-14.628,12.645a.511.511,0,0,0-.177.387V298.2a.514.514,0,0,0,.148.36.5.5,0,0,0,.357.149h29.257a.5.5,0,0,0,.357-.149.514.514,0,0,0,.148-.36V279.662a.51.51,0,0,0-.177-.387L713.328,266.63A.5.5,0,0,0,713,266.507Z" transform="translate(-694 -262.609)"/>
    </g>
    <g id="组_85" data-name="组 85" transform="translate(704.462 289.463)">
      <path id="路径_29" data-name="路径 29" class="cls-2" d="M858.9,647.628h12.964a1.3,1.3,0,0,1,0,2.593H858.9a1.3,1.3,0,0,1,0-2.593Zm0,0" transform="translate(-856.842 -646.868)"/>
      <path id="路径_30" data-name="路径 30" class="cls-2" d="M862.622,641.74H849.658a2.056,2.056,0,0,1,0-4.112h12.964a2.056,2.056,0,0,1,0,4.112Zm-12.964-2.593a.537.537,0,0,0,0,1.074h12.964a.537.537,0,0,0,0-1.074Z" transform="translate(-847.602 -637.628)"/>
    </g>
  </g>
</svg>
