<svg xmlns="http://www.w3.org/2000/svg" width="34" height="34" viewBox="0 0 34 34">
  <defs>
    <style>
      .cls-1 {
        fill: #333;
      }
    </style>
  </defs>
  <g id="组_188" data-name="组 188" transform="translate(-658 -208)">
    <path id="路径_61" data-name="路径 61" class="cls-1" d="M687.446,210.66a1.716,1.716,0,0,1,1.152.434,1.414,1.414,0,0,1,.476,1.046v25.718a1.413,1.413,0,0,1-.476,1.046,1.717,1.717,0,0,1-1.152.434H662.554a1.717,1.717,0,0,1-1.152-.434,1.413,1.413,0,0,1-.476-1.046V212.141a1.413,1.413,0,0,1,.476-1.046,1.716,1.716,0,0,1,1.152-.434h24.892m0-2.66H662.554A4.367,4.367,0,0,0,658,212.141v25.718A4.367,4.367,0,0,0,662.554,242h24.892A4.367,4.367,0,0,0,692,237.859V212.141a4.366,4.366,0,0,0-4.554-4.14Zm0,0" transform="translate(0 0)"/>
    <path id="路径_62" data-name="路径 62" class="cls-1" d="M785.367,364.2a2.757,2.757,0,1,0,2.757-2.762,2.759,2.759,0,0,0-2.757,2.762Zm0,0" transform="translate(-120.125 -145.668)"/>
    <path id="路径_63" data-name="路径 63" class="cls-1" d="M696.065,513.473a1.514,1.514,0,0,1-1.136-.5l-9.952-11.219-5.234,5.9a1.531,1.531,0,0,1-2.27,0l-2.909-3.28-7.627,8.6a1.525,1.525,0,0,1-1.407.485,1.475,1.475,0,0,1-1.138-.931,1.387,1.387,0,0,1,.275-1.411l8.763-9.877a1.531,1.531,0,0,1,2.27,0l2.909,3.28,5.233-5.9a1.531,1.531,0,0,1,2.269,0l11.086,12.5a1.386,1.386,0,0,1,.219,1.528,1.5,1.5,0,0,1-1.352.832Zm0,0" transform="translate(-5.966 -276.385)"/>
  </g>
</svg>
