<svg xmlns="http://www.w3.org/2000/svg" xmlns:xlink="http://www.w3.org/1999/xlink" width="36" height="38" viewBox="0 0 36 38">
  <defs>
    <style>
      .cls-1 {
        fill: #da2820;
      }

      .cls-2 {
        clip-path: url(#clip-path);
      }
    </style>
    <clipPath id="clip-path">
      <rect id="矩形_89" data-name="矩形 89" class="cls-1" width="36" height="38"/>
    </clipPath>
  </defs>
  <g id="组_178" data-name="组 178" class="cls-2">
    <path id="路径_58" data-name="路径 58" class="cls-1" d="M657.251,213.856c-.815.762-2.215-.069-3.562-1.936a20.42,20.42,0,0,1-2.23,4.347c1.9.682,3.126,1.744,3.126,2.944,0,2.071-3.656,3.748-8.17,3.748a13.077,13.077,0,0,1-6.54-1.5,13.036,13.036,0,0,1-6.539,1.5c-4.514,0-8.171-1.677-8.171-3.747,0-1.186,1.225-2.262,3.128-2.944a19.882,19.882,0,0,1-2.23-4.347c-1.346,1.853-2.745,2.7-3.562,1.936-1.116-1.049-.693-4.757.965-8.271a16.8,16.8,0,0,1,1.208-2.153c.232-10.219,6.949-18.422,15.187-18.422h.027c8.239,0,14.955,8.189,15.185,18.422a16.456,16.456,0,0,1,1.21,2.153c1.646,3.514,2.081,7.222.965,8.271Zm0,0" transform="translate(-621.886 -185.009)"/>
  </g>
</svg>
