<svg xmlns="http://www.w3.org/2000/svg" xmlns:xlink="http://www.w3.org/1999/xlink" width="750" height="1334" viewBox="0 0 750 1334">
  <defs>
    <style>
      .cls-1, .cls-8 {
        fill: none;
      }

      .cls-2, .cls-6, .cls-9 {
        fill: #fff;
      }

      .cls-2, .cls-5, .cls-7, .cls-8 {
        opacity: 0.2;
      }

      .cls-3 {
        clip-path: url(#clip-path);
      }

      .cls-4 {
        fill: url(#linear-gradient);
      }

      .cls-5 {
        clip-path: url(#clip-path-2);
      }

      .cls-7 {
        clip-path: url(#clip-path-3);
      }

      .cls-8 {
        stroke: #fff;
        stroke-linecap: round;
        stroke-width: 20px;
        stroke-dasharray: 10 60;
      }

      .cls-9 {
        font-size: 36px;
        font-family: FZY3K--GBK1-0, FZZhunYuan-M02;
        letter-spacing: 0.08em;
      }
    </style>
    <clipPath id="clip-path">
      <rect id="矩形_104" data-name="矩形 104" class="cls-1" width="750" height="1334"/>
    </clipPath>
    <linearGradient id="linear-gradient" x2="1" y2="1" gradientUnits="objectBoundingBox">
      <stop offset="0" stop-color="#fdae25"/>
      <stop offset="1" stop-color="#ff8e8a"/>
    </linearGradient>
    <clipPath id="clip-path-2">
      <path id="路径_76" data-name="路径 76" class="cls-2" d="M214.5,0C332.965,0,429,96.035,429,214.5S332.965,429,214.5,429,0,332.965,0,214.5,96.035,0,214.5,0Z" transform="translate(-83 110)"/>
    </clipPath>
    <clipPath id="clip-path-3">
      <path id="路径_77" data-name="路径 77" class="cls-2" d="M129.5,0A129.5,129.5,0,1,1,0,129.5,129.5,129.5,0,0,1,129.5,0Z" transform="translate(607 1018)"/>
    </clipPath>
  </defs>
  <g id="蒙版组_21" data-name="蒙版组 21" class="cls-3">
    <g id="组_222" data-name="组 222">
      <rect id="矩形_103" data-name="矩形 103" class="cls-4" width="750" height="1334"/>
      <g id="蒙版组_19" data-name="蒙版组 19" class="cls-5">
        <rect id="矩形_22" data-name="矩形 22" class="cls-6" width="750" height="1334"/>
      </g>
      <g id="蒙版组_20" data-name="蒙版组 20" class="cls-7">
        <rect id="矩形_105" data-name="矩形 105" class="cls-6" width="750" height="1334"/>
      </g>
      <path id="路径_75" data-name="路径 75" class="cls-8" d="M16848.621,1259.864c112.766-176.827,216.59-435.157,206.629-780.715,0,0-166.83-355.851-8.441-457.477" transform="matrix(0.899, 0.438, -0.438, 0.899, -14582.466, -7275.178)"/>
      <g id="组_221" data-name="组 221" transform="translate(28.893)">
        <text id="左滑无感右滑喜欢_" data-name="左滑无感右滑喜欢~" class="cls-9" transform="translate(194.107 205)"><tspan x="0" y="0">左滑无感右滑喜欢~</tspan></text>
        <path id="路径_80" data-name="路径 80" class="cls-6" d="M629.772,247.784l-.245-.109a18.753,18.753,0,0,1-3.782-2.383,12.5,12.5,0,0,1-2.632-2.862,7.262,7.262,0,0,1-1.233-3.954,5.376,5.376,0,0,1,.736-2.8,4.329,4.329,0,0,1,1.945-1.722,4.571,4.571,0,0,1,2.752-.283,6.019,6.019,0,0,1,2.46,1.151,6.012,6.012,0,0,1,2.459-1.151,4.558,4.558,0,0,1,2.752.283,4.32,4.32,0,0,1,1.944,1.722,5.359,5.359,0,0,1,.739,2.8,7.274,7.274,0,0,1-1.233,3.954,12.529,12.529,0,0,1-2.632,2.862,18.647,18.647,0,0,1-3.781,2.383Z" transform="translate(-455.772 -54.578)"/>
      </g>
    </g>
  </g>
</svg>
