<svg xmlns="http://www.w3.org/2000/svg" width="44" height="36" viewBox="0 0 44 36">
  <defs>
    <style>
      .cls-1 {
        fill: #07c160;
      }
    </style>
  </defs>
  <g id="组_175" data-name="组 175" transform="translate(-707.403 -334.672)">
    <path id="路径_53" data-name="路径 53" class="cls-1" d="M722.663,334.672c-8.359,0-15.26,5.715-15.26,13,0,4.206,2.267,7.655,6.1,10.351l-1.51,4.585,5.336-2.7a26.257,26.257,0,0,0,5.339.753,6.8,6.8,0,0,0,1.455-.1,10.429,10.429,0,0,1-.485-3.184c0-6.685,5.771-12.08,13-12.08a13.462,13.462,0,0,1,1.455.108C736.735,339.257,730.158,334.672,722.663,334.672ZM717.7,344.917a2.13,2.13,0,0,1-2.319-1.887,2.165,2.165,0,0,1,2.319-1.887,1.887,1.887,0,0,1,0,3.774Zm10.675.052v0a1.928,1.928,0,1,1,0-3.776,1.887,1.887,0,1,1,0,3.773Z" transform="translate(0)"/>
    <path id="路径_54" data-name="路径 54" class="cls-1" d="M952.552,455.024" transform="translate(-223.726 -109.807)"/>
    <path id="路径_55" data-name="路径 55" class="cls-1" d="M1149.157,700.821" transform="translate(-403.039 -333.975)"/>
    <path id="路径_56" data-name="路径 56" class="cls-1" d="M933.737,478.764c0-6.148-6.092-11.107-12.938-11.107-7.281,0-13,5.015-13,11.107,0,6.148,5.716,11.107,12.994,11.107a19.413,19.413,0,0,0,4.585-.754l4.206,2.316-1.133-3.826h0C931.526,485.341,933.793,482.269,933.737,478.764Zm-14.908-3.4a1.73,1.73,0,0,1-1.89,1.51,1.51,1.51,0,1,1,0-3.02C918.128,473.858,918.882,474.611,918.829,475.367Zm8.411,0a1.73,1.73,0,0,1-1.89,1.51,1.51,1.51,0,1,1,0-3.02C926.484,473.858,927.293,474.611,927.241,475.367Z" transform="translate(-182.335 -120.762)"/>
    <path id="路径_57" data-name="路径 57" class="cls-1" d="M1108.814,540.122" transform="translate(-366.333 -187.448)"/>
  </g>
</svg>
